<?xml version="1.0" encoding="utf-8" standalone="no"?>
<!DOCTYPE svg PUBLIC "-//W3C//DTD SVG 1.1//EN"
  "http://www.w3.org/Graphics/SVG/1.1/DTD/svg11.dtd">
<!-- Created with matplotlib (http://matplotlib.org/) -->
<svg height="288pt" version="1.1" viewBox="0 0 432 288" width="432pt" xmlns="http://www.w3.org/2000/svg" xmlns:xlink="http://www.w3.org/1999/xlink">
 <defs>
  <style type="text/css">
*{stroke-linecap:butt;stroke-linejoin:round;}
  </style>
 </defs>
 <g id="figure_1">
  <g id="patch_1">
   <path d="M 0 288 
L 432 288 
L 432 0 
L 0 0 
z
" style="fill:#ffffff;"/>
  </g>
  <g id="axes_1">
   <g id="line2d_1">
    <path clip-path="url(#p961286c634)" d="M 69.218182 242.116364 
L 78.170053 225.654848 
L 87.121925 209.795614 
L 96.073797 194.550025 
L 105.025668 179.930139 
L 113.97754 165.948767 
L 122.929412 152.619562 
L 131.881283 139.957102 
L 140.833155 127.977001 
L 149.785027 116.696027 
L 158.736898 106.132244 
L 167.68877 96.30518 
L 176.640642 87.23602 
L 185.592513 78.947843 
L 194.544385 71.465897 
L 203.496257 64.817943 
L 212.448128 59.034665 
L 221.4 54.150181 
L 230.351872 50.202679 
L 239.303743 47.235227 
L 248.255615 45.2968 
L 257.207487 44.443636 
L 266.159358 44.74103 
L 275.11123 46.265769 
L 284.063102 49.109528 
L 293.014973 53.383746 
L 301.966845 59.226857 
L 310.918717 66.815508 
L 319.870588 76.382891 
L 328.82246 88.250794 
L 337.774332 102.890892 
L 346.726203 121.057695 
L 355.678075 144.138171 
L 364.629947 175.454817 
L 373.581818 242.116364 
" style="fill:none;stroke:#1f77b4;stroke-linecap:square;stroke-width:1.5;"/>
   </g>
  </g>
 </g>
 <defs>
  <clipPath id="p961286c634">
   <rect height="217.44" width="334.8" x="54" y="34.56"/>
  </clipPath>
 </defs>
</svg>
