<?xml version="1.0" encoding="UTF-8" standalone="no"?>
<!-- Created with Inkscape (http://www.inkscape.org/) -->

<svg
   xmlns:dc="http://purl.org/dc/elements/1.1/"
   xmlns:cc="http://creativecommons.org/ns#"
   xmlns:rdf="http://www.w3.org/1999/02/22-rdf-syntax-ns#"
   xmlns:svg="http://www.w3.org/2000/svg"
   xmlns="http://www.w3.org/2000/svg"
   xmlns:sodipodi="http://sodipodi.sourceforge.net/DTD/sodipodi-0.dtd"
   xmlns:inkscape="http://www.inkscape.org/namespaces/inkscape"
   width="210mm"
   height="297mm"
   viewBox="0 0 744.09448819 1052.3622047"
   id="svg3422"
   version="1.1"
   inkscape:version="0.91 r13725"
   sodipodi:docname="drawing.svg">
  <defs
     id="defs3424" />
  <sodipodi:namedview
     id="base"
     pagecolor="#ffffff"
     bordercolor="#666666"
     borderopacity="1.0"
     inkscape:pageopacity="0.0"
     inkscape:pageshadow="2"
     inkscape:zoom="0.35"
     inkscape:cx="-146.42857"
     inkscape:cy="520"
     inkscape:document-units="px"
     inkscape:current-layer="layer1"
     showgrid="false"
     inkscape:window-width="3779"
     inkscape:window-height="2130"
     inkscape:window-x="61"
     inkscape:window-y="30"
     inkscape:window-maximized="1" />
  <metadata
     id="metadata3427">
    <rdf:RDF>
      <cc:Work
         rdf:about="">
        <dc:format>image/svg+xml</dc:format>
        <dc:type
           rdf:resource="http://purl.org/dc/dcmitype/StillImage" />
        <dc:title></dc:title>
      </cc:Work>
    </rdf:RDF>
  </metadata>
  <g
     inkscape:label="Layer 1"
     inkscape:groupmode="layer"
     id="layer1">
    <path
       style="fill:none;fill-rule:evenodd;stroke:#000000;stroke-width:1px;stroke-linecap:butt;stroke-linejoin:miter;stroke-opacity:1"
       d="m 202.85714,209.50506 c -3.25102,7.73368 -12.6602,10.41888 -17.14285,17.14286 -2.36257,3.54385 -3.23869,7.96274 -5.71429,11.42857 -2.34856,3.28798 -6.56672,5.0632 -8.57143,8.57143 -1.94822,3.40939 -1.31031,7.8193 -2.85714,11.42857 -0.0511,0.11918 -5.98886,10.13729 -8.57143,11.42857 -0.85184,0.42592 -2.32886,-0.79243 -2.85714,0 -3.98931,5.98396 -2.85715,13.33772 -2.85715,20 0,1.90476 0.46198,3.8664 0,5.71429 -0.5165,2.066 -2.55597,3.6061 -2.85714,5.71428 -0.67343,4.71405 0,9.52381 0,14.28572 0,3.80952 0,7.61905 0,11.42857 0,11.42857 0,22.85714 0,34.28571 0,3.80953 0,7.61905 0,11.42857 0,4.76191 -0.59064,9.56059 0,14.28572 0.37356,2.98844 1.90476,5.71428 2.85714,8.57143 0.95239,2.85714 1.90477,5.71428 2.85715,8.57143 0.95238,2.85714 1.30764,5.98892 2.85714,8.57142 1.38592,2.30987 4.50961,3.30494 5.71429,5.71429 1.7561,3.51221 1.31031,7.8193 2.85714,11.42857 1.35266,3.15622 3.80952,5.71429 5.71428,8.57143 3.80953,5.71429 7.89516,11.25384 11.42858,17.14286 6.93757,11.56262 -0.0306,-0.12241 2.85714,11.42857 1.69928,6.79714 7.51017,9.06117 11.42857,14.28571 1.27775,1.70367 1.57939,4.01062 2.85714,5.71429 1.61625,2.15499 4.09804,3.55929 5.71429,5.71428 1.27775,1.70368 1.35129,4.20844 2.85714,5.71429 10.71861,10.71861 5.26737,1.80767 14.28572,8.57143 2.15499,1.61624 3.55929,4.09804 5.71428,5.71428 1.70367,1.27776 4.01062,1.57939 5.71429,2.85715 2.15499,1.61624 3.55929,4.09804 5.71428,5.71428 1.70367,1.27776 3.80953,1.90477 5.71429,2.85715 1.90476,0.95238 3.80952,1.90476 5.71428,2.85714 3.80953,1.90476 7.47403,4.13247 11.42858,5.71428 2.79628,1.11852 5.71428,1.90477 8.57142,2.85715 2.85715,0.95238 5.60072,2.36202 8.57143,2.85714 4.69712,0.78285 9.52381,0 14.28572,0 1.61496,0 13.34676,0.62597 14.28571,0 2.24133,-1.49422 3.80953,-3.80952 5.71429,-5.71429 2.85714,-2.85714 5.98469,-5.46734 8.57143,-8.57142 8.11152,-9.73383 3.9926,-9.70689 14.28571,-20 2.4281,-2.42811 5.93347,-3.51599 8.57143,-5.71429 6.20816,-5.17347 11.42857,-11.42857 17.14286,-17.14286 1.90476,-1.90476 3.61082,-4.03152 5.71428,-5.71428 5.36279,-4.29023 11.78007,-7.13835 17.14286,-11.42857 2.10346,-1.68277 3.61083,-4.03152 5.71428,-5.71429 2.6814,-2.14511 6.14333,-3.28618 8.57143,-5.71429 10.71861,-10.7186 1.80767,-5.26737 8.57143,-14.28571 6.14418,-8.19223 6.7673,-3.40942 11.42857,-14.28571 7.53802,-17.58872 -2.85563,-5.71655 8.57143,-22.85715 1.49422,-2.24132 4.32837,-3.40442 5.71429,-5.71428 1.5495,-2.58251 1.73863,-5.77514 2.85714,-8.57143 0.79091,-1.97727 2.06623,-3.73701 2.85714,-5.71429 1.11852,-2.79628 1.51028,-5.87769 2.85715,-8.57143 0.60233,-1.20467 2.53047,-1.55048 2.85714,-2.85714 4.00773,-16.03091 -5.12803,-1.17252 2.85714,-17.14286 6.53801,-13.07602 -1.1842,12.12405 5.71429,-8.57142 0.30117,-0.90351 -0.67344,-2.18371 0,-2.85715 0.67343,-0.67343 2.1837,0.67344 2.85714,0 0.67344,-0.67343 -0.30117,-1.95363 0,-2.85714 0.67344,-2.0203 1.3513,-4.20844 2.85714,-5.71429 0.67344,-0.67343 2.18371,0.67344 2.85715,0 3.01169,-3.01169 2.70259,-8.41687 5.71428,-11.42857 1.50585,-1.50584 4.20844,-1.35129 5.71429,-2.85714 1.50584,-1.50585 1.57939,-4.01061 2.85714,-5.71429 4.91475,-6.55299 5.23962,-5.71428 11.42857,-5.71428 1.90476,0 4.01062,-0.85184 5.71429,0 1.61343,0.80672 11.88451,11.88451 14.28571,14.28571 4.76191,4.76191 9.52381,9.52381 14.28572,14.28572 2.85714,2.85714 5.94183,5.50357 8.57142,8.57143 3.09901,3.6155 5.4357,7.84487 8.57143,11.42857 3.54768,4.05449 7.88089,7.37408 11.42857,11.42857 5.54527,6.33745 9.82918,15.12421 17.14286,20 2.50588,1.67059 6.44184,0.72755 8.57143,2.85714 4.37992,13.13975 -0.43717,5.42284 8.57143,11.42857 1.12066,0.74711 1.51027,2.85715 2.85714,2.85715 0.95238,0 -0.42592,-2.00531 0,-2.85715 0.60234,-1.20467 2.11004,-1.73648 2.85714,-2.85714 1.18129,-1.77192 1.90477,-3.80952 2.85715,-5.71429 0.95238,-1.90476 2.06623,-3.73701 2.85714,-5.71428 1.11851,-2.79629 1.73863,-5.77514 2.85714,-8.57143 0.79091,-1.97727 2.50704,-3.61367 2.85715,-5.71429 0.62628,-3.75769 -0.53875,-7.65733 0,-11.42857 0.42591,-2.98142 1.90476,-5.71428 2.85714,-8.57143 0,-3.80952 -0.37906,-7.63795 0,-11.42857 0.57643,-5.76435 2.33266,-11.37354 2.85714,-17.14285 0.77602,-8.53623 0,-17.14286 0,-25.71429 0,-12.38095 0,-24.7619 0,-37.14286 0,-14.47869 -0.85183,3.40734 2.85714,-11.42857 0.14563,-0.58252 0.42525,-13.00997 0,-14.28571 -0.67343,-2.02031 -1.35129,-4.20844 -2.85714,-5.71429 -0.18308,-0.18308 -10.89637,-5.35948 -11.42857,-5.71428 -3.36199,-2.24133 -5.33894,-6.14707 -8.57143,-8.57143 -1.70367,-1.27776 -4.01061,-1.57939 -5.71428,-2.85715 -3.23249,-2.42436 -5.20944,-6.3301 -8.57143,-8.57142 -1.77193,-1.18129 -4.20844,-1.3513 -5.71429,-2.85715 -1.50585,-1.50584 -1.35129,-4.20844 -2.85714,-5.71428 -1.31257,-1.31257 -14.71815,-7.35908 -17.14286,-8.57143 -1.90476,-0.95238 -3.94236,-1.67586 -5.71428,-2.85714 -5.22782,-3.48522 -0.28505,-3.64269 -8.57143,-5.71429 -1.84789,-0.46197 -3.8664,0.46197 -5.71429,0 -4.13201,-1.033 -7.2521,-4.87899 -11.42857,-5.71429 -2.80166,-0.56033 -5.71429,0 -8.57143,0 -2.85714,0 -5.71428,0 -8.57143,0 -6.66666,0 -13.37411,-0.73621 -20,0 -4.8265,0.53628 -9.54514,1.80369 -14.28571,2.85715 -3.83326,0.85183 -7.52582,2.4235 -11.42857,2.85714 -9.46556,1.05173 -19.10587,-1.05173 -28.57143,0 -34.02979,3.78109 10.83917,2.85714 -22.85714,2.85714 -8.57143,0 -17.14286,0 -25.71429,0 -1.90476,0 -3.84651,-0.37355 -5.71429,0 -24.05621,4.81125 -0.0883,0.0441 -11.42857,5.71429 -2.69374,1.34687 -5.77514,1.73863 -8.57143,2.85714 -3.95454,1.58182 -7.77635,3.52296 -11.42857,5.71429 -2.94451,1.7667 -5.59,4.01061 -8.57143,5.71428 -3.698,2.11315 -7.73057,3.60115 -11.42857,5.71429 -2.98142,1.70367 -5.50009,4.17862 -8.57143,5.71428 -2.69374,1.34687 -5.80324,1.67078 -8.57142,2.85715 -5.87221,2.51666 -11.42858,5.71428 -17.14286,8.57143 -3.80953,1.90476 -7.88472,3.35172 -11.42857,5.71428 -6.53801,4.35868 1.78654,2.26163 -8.57143,5.71429 -0.90351,0.30117 -2.18371,-0.67344 -2.85714,0 -0.67344,0.67343 0.67343,2.18371 0,2.85714 -0.67344,0.67344 -1.90477,0 -2.85715,0 0,0.95238 0.67344,2.18371 0,2.85714 -0.67343,0.67344 -2.85714,0.95238 -2.85714,0 0,-0.95238 3.53058,0.67344 2.85714,0 -2.4281,-2.4281 -6.14332,-3.28618 -8.57143,-5.71428 -1.50584,-1.50585 -1.57939,-4.01062 -2.85714,-5.71429 -15.41352,-20.55136 3.17251,6.02966 -11.42857,-8.57143 -2.4281,-2.4281 -3.28618,-6.14332 -5.71429,-8.57143 -1.50584,-1.50584 -3.94236,-1.67585 -5.71428,-2.85714 -1.12067,-0.74711 -1.65247,-2.2548 -2.85714,-2.85714 -0.85184,-0.42592 -2.00531,0.42592 -2.85715,0 -11.89074,-5.94537 3.05439,0.19724 -2.85714,-5.71429 -0.67344,-0.67343 -1.90476,0 -2.85714,0 -7.61905,0 -2.09524,-0.57143 -14.28572,8.57143 z"
       id="path3432"
       inkscape:connector-curvature="0" />
  </g>
</svg>
