<?xml version="1.0" encoding="utf-8" standalone="no"?>
<!DOCTYPE svg PUBLIC "-//W3C//DTD SVG 1.1//EN"
  "http://www.w3.org/Graphics/SVG/1.1/DTD/svg11.dtd">
<!-- Created with matplotlib (http://matplotlib.org/) -->
<svg height="288pt" version="1.1" viewBox="0 0 432 288" width="432pt" xmlns="http://www.w3.org/2000/svg" xmlns:xlink="http://www.w3.org/1999/xlink">
 <defs>
  <style type="text/css">
*{stroke-linecap:butt;stroke-linejoin:round;}
  </style>
 </defs>
 <g id="figure_1">
  <g id="patch_1">
   <path d="M 0 288 
L 432 288 
L 432 0 
L 0 0 
z
" style="fill:#ffffff;"/>
  </g>
  <g id="axes_1">
   <g id="line2d_1">
    <path clip-path="url(#p8b3b6f6c72)" d="M 69.218182 242.116364 
L 78.170053 238.221043 
L 87.121925 233.052172 
L 96.073797 226.367791 
L 105.025668 217.948396 
L 113.97754 207.627063 
L 122.929412 195.323614 
L 131.881283 181.079143 
L 140.833155 165.086019 
L 149.785027 147.70777 
L 158.736898 129.483486 
L 167.68877 111.11263 
L 176.640642 93.418456 
L 185.592513 77.291351 
L 194.544385 63.616804 
L 203.496257 53.195772 
L 212.448128 46.667287 
L 221.4 44.443636 
L 230.351872 46.667287 
L 239.303743 53.195772 
L 248.255615 63.616804 
L 257.207487 77.291351 
L 266.159358 93.418456 
L 275.11123 111.11263 
L 284.063102 129.483486 
L 293.014973 147.70777 
L 301.966845 165.086019 
L 310.918717 181.079143 
L 319.870588 195.323614 
L 328.82246 207.627063 
L 337.774332 217.948396 
L 346.726203 226.367791 
L 355.678075 233.052172 
L 364.629947 238.221043 
L 373.581818 242.116364 
" style="fill:none;stroke:#1f77b4;stroke-linecap:square;stroke-width:1.5;"/>
   </g>
  </g>
 </g>
 <defs>
  <clipPath id="p8b3b6f6c72">
   <rect height="217.44" width="334.8" x="54" y="34.56"/>
  </clipPath>
 </defs>
</svg>
