<?xml version="1.0" encoding="utf-8" standalone="no"?>
<!DOCTYPE svg PUBLIC "-//W3C//DTD SVG 1.1//EN"
  "http://www.w3.org/Graphics/SVG/1.1/DTD/svg11.dtd">
<!-- Created with matplotlib (http://matplotlib.org/) -->
<svg height="288pt" version="1.1" viewBox="0 0 432 288" width="432pt" xmlns="http://www.w3.org/2000/svg" xmlns:xlink="http://www.w3.org/1999/xlink">
 <defs>
  <style type="text/css">
*{stroke-linecap:butt;stroke-linejoin:round;}
  </style>
 </defs>
 <g id="figure_1">
  <g id="patch_1">
   <path d="M 0 288 
L 432 288 
L 432 0 
L 0 0 
z
" style="fill:#ffffff;"/>
  </g>
  <g id="axes_1">
   <g id="patch_2">
    <path clip-path="url(#p9ac023d406)" d="M 69.218182 252 
L 86.127273 252 
L 86.127273 243.965341 
L 69.218182 243.965341 
z
" style="fill:#1f77b4;"/>
   </g>
   <g id="patch_3">
    <path clip-path="url(#p9ac023d406)" d="M 86.127273 252 
L 103.036364 252 
L 103.036364 211.463624 
L 86.127273 211.463624 
z
" style="fill:#1f77b4;"/>
   </g>
   <g id="patch_4">
    <path clip-path="url(#p9ac023d406)" d="M 103.036364 252 
L 119.945455 252 
L 119.945455 151.637041 
L 103.036364 151.637041 
z
" style="fill:#1f77b4;"/>
   </g>
   <g id="patch_5">
    <path clip-path="url(#p9ac023d406)" d="M 119.945455 252 
L 136.854545 252 
L 136.854545 87.137237 
L 119.945455 87.137237 
z
" style="fill:#1f77b4;"/>
   </g>
   <g id="patch_6">
    <path clip-path="url(#p9ac023d406)" d="M 136.854545 252 
L 153.763636 252 
L 153.763636 44.914286 
L 136.854545 44.914286 
z
" style="fill:#1f77b4;"/>
   </g>
   <g id="patch_7">
    <path clip-path="url(#p9ac023d406)" d="M 153.763636 252 
L 170.672727 252 
L 170.672727 49.411821 
L 153.763636 49.411821 
z
" style="fill:#1f77b4;"/>
   </g>
   <g id="patch_8">
    <path clip-path="url(#p9ac023d406)" d="M 170.672727 252 
L 187.581818 252 
L 187.581818 81.527031 
L 170.672727 81.527031 
z
" style="fill:#1f77b4;"/>
   </g>
   <g id="patch_9">
    <path clip-path="url(#p9ac023d406)" d="M 187.581818 252 
L 204.490909 252 
L 204.490909 130.308887 
L 187.581818 130.308887 
z
" style="fill:#1f77b4;"/>
   </g>
   <g id="patch_10">
    <path clip-path="url(#p9ac023d406)" d="M 204.490909 252 
L 221.4 252 
L 221.4 176.326633 
L 204.490909 176.326633 
z
" style="fill:#1f77b4;"/>
   </g>
   <g id="patch_11">
    <path clip-path="url(#p9ac023d406)" d="M 221.4 252 
L 238.309091 252 
L 238.309091 209.355405 
L 221.4 209.355405 
z
" style="fill:#1f77b4;"/>
   </g>
   <g id="patch_12">
    <path clip-path="url(#p9ac023d406)" d="M 238.309091 252 
L 255.218182 252 
L 255.218182 230.730408 
L 238.309091 230.730408 
z
" style="fill:#1f77b4;"/>
   </g>
   <g id="patch_13">
    <path clip-path="url(#p9ac023d406)" d="M 255.218182 252 
L 272.127273 252 
L 272.127273 242.30219 
L 255.218182 242.30219 
z
" style="fill:#1f77b4;"/>
   </g>
   <g id="patch_14">
    <path clip-path="url(#p9ac023d406)" d="M 272.127273 252 
L 289.036364 252 
L 289.036364 247.970958 
L 272.127273 247.970958 
z
" style="fill:#1f77b4;"/>
   </g>
   <g id="patch_15">
    <path clip-path="url(#p9ac023d406)" d="M 289.036364 252 
L 305.945455 252 
L 305.945455 250.465685 
L 289.036364 250.465685 
z
" style="fill:#1f77b4;"/>
   </g>
   <g id="patch_16">
    <path clip-path="url(#p9ac023d406)" d="M 305.945455 252 
L 322.854545 252 
L 322.854545 251.578356 
L 305.945455 251.578356 
z
" style="fill:#1f77b4;"/>
   </g>
   <g id="patch_17">
    <path clip-path="url(#p9ac023d406)" d="M 322.854545 252 
L 339.763636 252 
L 339.763636 251.80089 
L 322.854545 251.80089 
z
" style="fill:#1f77b4;"/>
   </g>
   <g id="patch_18">
    <path clip-path="url(#p9ac023d406)" d="M 339.763636 252 
L 356.672727 252 
L 356.672727 251.918014 
L 339.763636 251.918014 
z
" style="fill:#1f77b4;"/>
   </g>
   <g id="patch_19">
    <path clip-path="url(#p9ac023d406)" d="M 356.672727 252 
L 373.581818 252 
L 373.581818 251.953151 
L 356.672727 251.953151 
z
" style="fill:#1f77b4;"/>
   </g>
  </g>
 </g>
 <defs>
  <clipPath id="p9ac023d406">
   <rect height="217.44" width="334.8" x="54" y="34.56"/>
  </clipPath>
 </defs>
</svg>
