<?xml version="1.0" encoding="utf-8" standalone="no"?>
<!DOCTYPE svg PUBLIC "-//W3C//DTD SVG 1.1//EN"
  "http://www.w3.org/Graphics/SVG/1.1/DTD/svg11.dtd">
<!-- Created with matplotlib (http://matplotlib.org/) -->
<svg height="288pt" version="1.1" viewBox="0 0 432 288" width="432pt" xmlns="http://www.w3.org/2000/svg" xmlns:xlink="http://www.w3.org/1999/xlink">
 <defs>
  <style type="text/css">
*{stroke-linecap:butt;stroke-linejoin:round;}
  </style>
 </defs>
 <g id="figure_1">
  <g id="patch_1">
   <path d="M 0 288 
L 432 288 
L 432 0 
L 0 0 
z
" style="fill:#ffffff;"/>
  </g>
  <g id="axes_1">
   <g id="patch_2">
    <path clip-path="url(#pf7b20f609d)" d="M 69.218182 252 
L 84.436364 252 
L 84.436364 236.462629 
L 69.218182 236.462629 
z
" style="fill:#1f77b4;"/>
   </g>
   <g id="patch_3">
    <path clip-path="url(#pf7b20f609d)" d="M 84.436364 252 
L 99.654545 252 
L 99.654545 211.308943 
L 84.436364 211.308943 
z
" style="fill:#1f77b4;"/>
   </g>
   <g id="patch_4">
    <path clip-path="url(#pf7b20f609d)" d="M 99.654545 252 
L 114.872727 252 
L 114.872727 182.114244 
L 99.654545 182.114244 
z
" style="fill:#1f77b4;"/>
   </g>
   <g id="patch_5">
    <path clip-path="url(#pf7b20f609d)" d="M 114.872727 252 
L 130.090909 252 
L 130.090909 156.528364 
L 114.872727 156.528364 
z
" style="fill:#1f77b4;"/>
   </g>
   <g id="patch_6">
    <path clip-path="url(#pf7b20f609d)" d="M 130.090909 252 
L 145.309091 252 
L 145.309091 130.812826 
L 130.090909 130.812826 
z
" style="fill:#1f77b4;"/>
   </g>
   <g id="patch_7">
    <path clip-path="url(#pf7b20f609d)" d="M 145.309091 252 
L 160.527273 252 
L 160.527273 105.464653 
L 145.309091 105.464653 
z
" style="fill:#1f77b4;"/>
   </g>
   <g id="patch_8">
    <path clip-path="url(#pf7b20f609d)" d="M 160.527273 252 
L 175.745455 252 
L 175.745455 76.810197 
L 160.527273 76.810197 
z
" style="fill:#1f77b4;"/>
   </g>
   <g id="patch_9">
    <path clip-path="url(#pf7b20f609d)" d="M 175.745455 252 
L 190.963636 252 
L 190.963636 49.711638 
L 175.745455 49.711638 
z
" style="fill:#1f77b4;"/>
   </g>
   <g id="patch_10">
    <path clip-path="url(#pf7b20f609d)" d="M 190.963636 252 
L 206.181818 252 
L 206.181818 44.914286 
L 190.963636 44.914286 
z
" style="fill:#1f77b4;"/>
   </g>
   <g id="patch_11">
    <path clip-path="url(#pf7b20f609d)" d="M 206.181818 252 
L 221.4 252 
L 221.4 65.18418 
L 206.181818 65.18418 
z
" style="fill:#1f77b4;"/>
   </g>
   <g id="patch_12">
    <path clip-path="url(#pf7b20f609d)" d="M 221.4 252 
L 236.618182 252 
L 236.618182 81.823646 
L 221.4 81.823646 
z
" style="fill:#1f77b4;"/>
   </g>
   <g id="patch_13">
    <path clip-path="url(#pf7b20f609d)" d="M 236.618182 252 
L 251.836364 252 
L 251.836364 99.370719 
L 236.618182 99.370719 
z
" style="fill:#1f77b4;"/>
   </g>
   <g id="patch_14">
    <path clip-path="url(#pf7b20f609d)" d="M 251.836364 252 
L 267.054545 252 
L 267.054545 117.695741 
L 251.836364 117.695741 
z
" style="fill:#1f77b4;"/>
   </g>
   <g id="patch_15">
    <path clip-path="url(#pf7b20f609d)" d="M 267.054545 252 
L 282.272727 252 
L 282.272727 135.458911 
L 267.054545 135.458911 
z
" style="fill:#1f77b4;"/>
   </g>
   <g id="patch_16">
    <path clip-path="url(#pf7b20f609d)" d="M 282.272727 252 
L 297.490909 252 
L 297.490909 154.367395 
L 282.272727 154.367395 
z
" style="fill:#1f77b4;"/>
   </g>
   <g id="patch_17">
    <path clip-path="url(#pf7b20f609d)" d="M 297.490909 252 
L 312.709091 252 
L 312.709091 169.472572 
L 297.490909 169.472572 
z
" style="fill:#1f77b4;"/>
   </g>
   <g id="patch_18">
    <path clip-path="url(#pf7b20f609d)" d="M 312.709091 252 
L 327.927273 252 
L 327.927273 188.467495 
L 312.709091 188.467495 
z
" style="fill:#1f77b4;"/>
   </g>
   <g id="patch_19">
    <path clip-path="url(#pf7b20f609d)" d="M 327.927273 252 
L 343.145455 252 
L 343.145455 206.57642 
L 327.927273 206.57642 
z
" style="fill:#1f77b4;"/>
   </g>
   <g id="patch_20">
    <path clip-path="url(#pf7b20f609d)" d="M 343.145455 252 
L 358.363636 252 
L 358.363636 224.31798 
L 343.145455 224.31798 
z
" style="fill:#1f77b4;"/>
   </g>
   <g id="patch_21">
    <path clip-path="url(#pf7b20f609d)" d="M 358.363636 252 
L 373.581818 252 
L 373.581818 242.167588 
L 358.363636 242.167588 
z
" style="fill:#1f77b4;"/>
   </g>
  </g>
 </g>
 <defs>
  <clipPath id="pf7b20f609d">
   <rect height="217.44" width="334.8" x="54" y="34.56"/>
  </clipPath>
 </defs>
</svg>
